<?xml version="1.0" standalone="no"?>
<!DOCTYPE svg PUBLIC "-//W3C//DTD SVG 20010904//EN"
 "http://www.w3.org/TR/2001/REC-SVG-20010904/DTD/svg10.dtd">
<svg version="1.0" xmlns="http://www.w3.org/2000/svg"
 width="176.000000pt" height="168.000000pt" viewBox="0 0 176.000000 168.000000"
 preserveAspectRatio="xMidYMid meet">

<g transform="translate(0.000000,168.000000) scale(0.100000,-0.100000)"
fill="#CF653A" stroke="none">
<path d="M415 1588 c-229 -30 -404 -287 -365 -536 6 -37 18 -77 26 -89 28 -43
91 -42 120 2 13 20 14 35 5 93 -24 156 44 305 166 362 63 29 167 26 233 -8 62
-33 133 -104 188 -190 28 -44 54 -75 68 -78 49 -12 67 0 122 81 105 156 190
215 311 215 83 0 133 -22 189 -84 79 -86 97 -162 81 -339 -3 -42 -1 -51 20
-68 32 -26 73 -24 100 5 17 18 26 46 34 100 22 150 -26 298 -129 407 -177 185
-435 174 -630 -26 l-72 -74 -79 78 c-122 121 -242 168 -388 149z"/>
<path d="M298 746 c-29 -22 -38 -59 -22 -93 8 -16 140 -154 293 -306 328 -328
303 -315 414 -210 154 144 264 254 388 385 140 149 150 168 104 213 -49 50
-56 45 -328 -230 -139 -140 -258 -255 -264 -255 -6 0 -125 115 -265 255 -263
264 -277 274 -320 241z"/>
</g>
</svg>
